<svg xmlns="http://www.w3.org/2000/svg" viewBox="0 0 270.37 270.37"><g fill="#821e1e"><path d="M42.245 231.141c25.158 24.45 58.31 37.914 93.346 37.914 1.216 0 2.441-.016 3.663-.048 35.78-.962 69.044-15.8 93.663-41.781 24.622-25.983 37.65-59.997 36.687-95.777-.944-35.143-15.346-67.992-40.55-92.488C203.028 13.664 168.411.1 132.05 1.095 58.188 3.08-.29 64.787 1.696 138.651c.946 35.148 15.345 67.992 40.55 92.49zm90.646-198.734c.94-.025 1.884-.038 2.821-.038 56.019 0 101.079 43.889 102.586 99.924.74 27.417-9.246 53.48-28.112 73.39-18.864 19.908-44.354 31.278-71.772 32.017-.94.025-1.883.037-2.82.037-56.02 0-101.08-43.892-102.587-99.923-1.522-56.601 43.287-103.887 99.884-105.407z"/><path d="M91.213 151.434h99.255c7.497 0 13.573-6.076 13.573-13.573 0-7.496-6.076-13.573-13.573-13.573H91.213c-7.496 0-13.573 6.077-13.573 13.573 0 7.497 6.077 13.573 13.573 13.573z"/></g></svg>
