<svg xmlns="http://www.w3.org/2000/svg" viewBox="0 0 270.37 270.37"><g fill="#821e1e"><path d="M135.185 1.181c-73.89 0-134.004 60.114-134.004 134.004 0 73.89 60.114 134.004 134.004 134.004 73.89 0 134.004-60.114 134.004-134.004 0-73.89-60.114-134.004-134.004-134.004zm0 236.686c-56.62 0-102.682-46.065-102.682-102.682 0-56.617 46.062-102.682 102.682-102.682 56.62 0 102.682 46.062 102.682 102.682 0 56.62-46.062 102.682-102.682 102.682z"/><path d="M184.811 121.61h-36.053V85.556c0-7.496-6.077-13.572-13.573-13.572s-13.573 6.076-13.573 13.572v36.054H85.56c-7.497 0-13.573 6.077-13.573 13.573s6.076 13.573 13.573 13.573h36.053v36.057c0 7.495 6.077 13.573 13.573 13.573s13.573-6.078 13.573-13.573v-36.057h36.053c7.497 0 13.573-6.077 13.573-13.573s-6.076-13.573-13.573-13.573z"/></g></svg>
